<?xml version="1.0" encoding="UTF-8" standalone="no"?>
<!-- Created with Inkscape (http://www.inkscape.org/) -->

<svg
   xmlns:dc="http://purl.org/dc/elements/1.1/"
   xmlns:cc="http://creativecommons.org/ns#"
   xmlns:rdf="http://www.w3.org/1999/02/22-rdf-syntax-ns#"
   xmlns:svg="http://www.w3.org/2000/svg"
   xmlns="http://www.w3.org/2000/svg"
   xmlns:sodipodi="http://sodipodi.sourceforge.net/DTD/sodipodi-0.dtd"
   xmlns:inkscape="http://www.inkscape.org/namespaces/inkscape"
   width="450.52805"
   height="446.48743"
   id="svg2"
   version="1.1"
   inkscape:version="0.91 r"
   sodipodi:docname="palette_dialog.svg">
  <defs
     id="defs4" />
  <sodipodi:namedview
     id="base"
     pagecolor="#ffffff"
     bordercolor="#666666"
     borderopacity="1.0"
     inkscape:pageopacity="0.0"
     inkscape:pageshadow="2"
     inkscape:zoom="0.50000001"
     inkscape:cx="-64.543321"
     inkscape:cy="-3.030454"
     inkscape:document-units="px"
     inkscape:current-layer="layer1"
     showgrid="false"
     inkscape:window-width="1916"
     inkscape:window-height="1372"
     inkscape:window-x="267"
     inkscape:window-y="386"
     inkscape:window-maximized="0"
     fit-margin-top="0"
     fit-margin-left="0"
     fit-margin-right="0"
     fit-margin-bottom="0" />
  <metadata
     id="metadata7">
    <rdf:RDF>
      <cc:Work
         rdf:about="">
        <dc:format>image/svg+xml</dc:format>
        <dc:type
           rdf:resource="http://purl.org/dc/dcmitype/StillImage" />
        <dc:title />
      </cc:Work>
    </rdf:RDF>
  </metadata>
  <g
     inkscape:label="Layer 1"
     inkscape:groupmode="layer"
     id="layer1"
     transform="translate(4.7866896,7.5336323)">
    <rect
       style="fill:none;stroke:none"
       id="rect2988"
       width="172.74077"
       height="171.19151"
       x="-118.19686"
       y="562.80792" />
    <g
       id="g4138"
       transform="matrix(0.35798661,0,0,0.35798661,-77.528103,-37.837801)">
      <path
         id="path4140"
         d="m 1341.86,807.42 c 1.63,-1.01 3.36,1.81 1.96,2.98 -0.7599,-0.94 -1.44,-1.93 -1.96,-2.98 z"
         inkscape:connector-curvature="0"
         style="fill:#ffffff;stroke:#ffffff;stroke-width:0.0938" />
      <path
         id="path4142-8"
         d="m 904.06,177.99 c 36.63,-33.7 82.63,-55.72 117.31,-91.73 -14.69,30.06 -19.6,63.43 -26.48,95.82 -5.79,27.45 -13.6,55.43 -30.58,78.27 -12.91,17.6 -30.91,31.04 -50.76,39.91 -15.45,-8.18 -30.84,-16.49 -46.33,-24.59 -0.22,-0.89 -0.43,-1.78 -0.61,-2.67 -2.8,-15.93 -1.95,-32.73 3.77,-47.94 6.78,-18.38 19.48,-33.87 33.68,-47.07 z"
         inkscape:connector-curvature="0"
         style="fill:#a56c29;stroke:#a56c29;stroke-width:0.0938" />
      <path
         id="path4144"
         d="m 866.61,273 c 0.18,0.89 0.39,1.78 0.61,2.67 15.4901,8.1 30.88,16.41 46.33,24.59 -3.56,9.93 -8.87,19.02 -14.07,28.16 -1.27,1.91 -1.47,4.22 -1.68,6.45 l -1.25,-0.72 c -14.44,24.83 -28.19,50.07 -42.24,75.13 -2.12,3.65 -3.7,7.62 -6.37,10.92 -17.11,-11.71 -34.66,-22.77 -51.84,-34.38 -1.92,-1.32 -4,-2.37 -6.15,-3.23 0.78,-0.71 1.59,-1.42 2.14,-2.34 7.98,-13.63 16.87,-26.7 24.81,-40.35 4.43,-6.73 9.95,-12.67 14.96,-18.97 4.13,-5.2 9.97,-9.19 12.62,-15.43 1.61,-1.64 3.03,-3.45 4.01,-5.54 15.66,11.34 32.01,21.74 47.37,33.48 0.54,-0.52 1.08,-1.04 1.64,-1.56 -16.14,-10.63 -31.7,-22.1 -47.73,-32.89 l -1.03,-0.64 c 0.47,-5.41 2.55,-10.46 3.79,-15.7 0.65,-3.2 3.49,-5.22 5.87,-7.16 2.58,-0.69 5.33,0.05 7.97,0.2 0.06,-0.67 0.18,-2.02 0.24,-2.69 m -21.38,33.22 c 0,0.27 -0.02,0.8 -0.03,1.06 14.75,10.13 29.53,20.21 44.22,30.42 1.02,0.62 2.11,1.76 3.45,1.21 0.17,-1.32 -1.55,-1.78 -2.3,-2.53 -14.79,-9.99 -29.4,-20.27 -44.18,-30.28 -0.29,0.03 -0.87,0.09 -1.16,0.12 z"
         inkscape:connector-curvature="0"
         style="fill:#cccccc;stroke:#cccccc;stroke-width:0.0938" />
      <path
         id="path4146"
         d="m 790.23,383.85 c 1.45,1.21 3.04,2.25 4.64,3.29 17.62,11.4 34.99,23.2 52.65,34.53 -1.4,2.66 -2.68,5.39 -4.24,7.97 -15.13,-10.59 -30.58,-20.72 -45.8,-31.18 -3.55,-2.55 -7.6,-4.5 -10.49,-7.86 -0.53,0.56 -1.05,1.13 -1.56,1.71 13.93,9.52 27.95,18.91 41.9,28.42 5.23,3.45 10.25,7.23 15.71,10.35 -3.73,5.41 -6.84,11.27 -9.43,17.3 -1.14,0.36 -2.26,0.78 -3.37,1.2 -17.42,-12.34 -34.89,-24.62 -52.62,-36.51 -0.93,-0.66 -1.8,-1.38 -2.66,-2.09 3.12,-5.8 6.73,-11.37 9.49,-17.37 0.03,-0.59 0.1,-1.77 0.13,-2.35 2.39,-2.06 4.24,-4.6 5.65,-7.41 z"
         inkscape:connector-curvature="0"
         style="fill:#cccccc;stroke:#cccccc;stroke-width:0.0938" />
      <path
         id="path4148"
         d="m 1223.2,739.7 c 3.5701,-0.4 7.24,-0.35 10.7301,0.69 4.4099,1.43 9.21,0.75 13.58,2.42 3.41,1.25 7.62,-0.15 10.49,2.58 -11.5602,-2.19 -23.1701,-3.97 -34.8001,-5.69 z"
         inkscape:connector-curvature="0"
         style="fill:#cccccc;stroke:#cccccc;stroke-width:0.0938" />
      <path
         id="path4150"
         d="m 849.77,298.99 c 16.03,10.79 31.59,22.26 47.73,32.89 -0.56,0.52 -1.1,1.04 -1.64,1.56 C 880.5,321.7 864.15,311.3 848.49,299.96 l 1.28,-0.97 z"
         inkscape:connector-curvature="0"
         style="fill:#787878;stroke:#787878;stroke-width:0.0938" />
      <path
         id="path4152"
         d="m 785.43,392.31 c 0.51,-0.58 1.03,-1.15 1.56,-1.71 2.89,3.36 6.94,5.31 10.49,7.86 15.22,10.46 30.67,20.59 45.8,31.18 l -0.2401,1.44 c -5.46,-3.12 -10.48,-6.9 -15.71,-10.35 C 813.38,411.22 799.36,401.83 785.43,392.31 Z"
         inkscape:connector-curvature="0"
         style="fill:#787878;stroke:#787878;stroke-width:0.0938" />
      <path
         id="path4154"
         d="m 845.23,306.22 c 0.29,-0.03 0.87,-0.09 1.16,-0.12 14.78,10.01 29.39,20.29 44.18,30.28 0.75,0.75 2.47,1.21 2.3,2.53 -1.34,0.55 -2.43,-0.59 -3.45,-1.21 -14.69,-10.21 -29.47,-20.29 -44.22,-30.42 0.01,-0.26 0.03,-0.79 0.03,-1.06 z"
         inkscape:connector-curvature="0"
         style="fill:#777777;stroke:#777777;stroke-width:0.0938" />
      <path
         id="path4156"
         d="m 789.95,382.59 c 2.15,0.86 4.23,1.91 6.15,3.23 17.1801,11.61 34.73,22.67 51.84,34.38 l -0.42,1.47 c -17.66,-11.33 -35.03,-23.13 -52.65,-34.53 -1.6,-1.04 -3.19,-2.08 -4.64,-3.29 l -0.28,-1.26 z"
         inkscape:connector-curvature="0"
         style="fill:#797979;stroke:#797979;stroke-width:0.0938" />
      <path
         id="path4158"
         d="m 777.62,413.07 c 17.73,11.89 35.2,24.17 52.62,36.51 -7.27,12.85 -14.41,25.77 -21.45,38.75 -11.08,19.46 -21.63,39.21 -32.63,58.71 -9.98,16.97 -19.71,34.09 -29.81,50.9901 0.42,-0.08 1.27,-0.26 1.69,-0.35 -3.91,3.11 -5.79,7.85 -8.28,12.02 -7.38,12.65 -14.82,25.27 -22.1,37.98 -8.78,14.8 -17.06,29.91 -26.47,44.34 -9.72,15.36 -19.45,30.71 -29.16,46.08 -1.4,2.14 -2.8,4.29 -4.15,6.47 -15.39,24.7 -31.46,48.98 -46.15,74.11 -0.98,1.71 -2.02,3.48 -3.77,4.53 -24.05,-7.17 -46.55,-20.79 -62.95,-39.93 5.78,-5.96 9.46,-13.45 13.83,-20.42 11.16,-18.16 22.08,-36.47 33.23,-54.63 1.1,-1.84 2.03,-3.75 3.09,-5.6 8.91,-13.71 17.1,-27.88 25.65,-41.81 15.44,-25.66 31.4,-51 47.1,-76.49 17.29,-27.69 34.47,-55.44 51.6201,-83.2 14.14,-22.02 28.85,-43.67 43.22,-65.54 C 767.68,428.06 772.62,420.55 777.62,413.07 Z"
         inkscape:connector-curvature="0"
         style="fill:#d2975f;stroke:#d2975f;stroke-width:0.0938" />
      <path
         id="path4160"
         d="m 467.1,921.66 c 4.85,-0.79 9.53,0.9901 14.25,1.8 19.53,4.02 39.12,7.82 58.62,11.97 -1.25,0.13 -2.17,0.72 -2.7599,1.77 -13.46,21.49 -26.99,42.92 -40.51,64.36 -9.7,15.31 -18.94,30.93 -29.48,45.68 -45,65.24 -86.54,132.83 -132.95,197.11 -25.08,34.7101 -51.63,68.42 -80.56,100.02 0.17,-18.41 6.73,-36.05 14.06,-52.7 5.58,-12.4801 12.11,-24.49 18.27,-36.6801 44.34,-89.6899 94.92,-176.0699 141.35,-264.67 12.58,-21.63 25.84,-42.88 38.58,-64.43 C 466.6,924.56 466.66,923.03 467.1,921.66 Z"
         inkscape:connector-curvature="0"
         style="fill:#d2975f;stroke:#d2975f;stroke-width:0.0938" />
      <path
         id="path4162"
         d="m 659.99,431.11 c 19.3,-1.18 38.69,-0.63 58.03,-0.5 14.94,1.28 30.16,0.87 44.73,4.98 -14.37,21.87 -29.08,43.52 -43.22,65.54 -3.61,-2.96 -7.19,-5.96 -10.79,-8.93 -3.93,-3.38 -9.2,-4.27 -13.9,-6.09 -2.86,-1.46 -5.84,0.02 -8.61,0.93 -6.42,2.05 -11.74,6.32 -17.5,9.67 -3.56,1.96 -4.84,6.05 -6.77,9.36 -2.98,5.95 -7.06,11.44 -8.81,17.94 -1.31,4.7 -2.69,9.38 -4.12,14.04 -1.98,5.57 0.52,11.32 1.09,16.92 0.51,5.71 4.09,10.3701 6.37,15.46 2.39,5.67 7.47,9.4 11.42,13.9 -15.7,25.49 -31.66,50.83 -47.1,76.49 -8.55,13.93 -16.74,28.1 -25.65,41.81 -13.8199,-2.35 -28.73,-2.5 -41.56,3.89 -3.54,1.83 -7.31,3.64 -9.68,6.98 -9.88,7.53 -16.24,19.93 -15.58,32.45 0.5099,14.05 7.91,26.75 16.67,37.33 16.4,19.14 38.9,32.7599 62.95,39.93 12.91,3.54 26.56,5.72 39.88,3.27 8.87,-1.36 17.53,-4.73 24.59,-10.33 8.38,-6.05 15.04,-15.01 17.15,-25.2401 1.78,-8.54 -0.56,-17.3799 -4.55,-24.96 -5.69,-10.73 -14.13,-19.67 -23,-27.85 9.71,-15.37 19.4399,-30.72 29.16,-46.08 9.41,-14.43 17.69,-29.54 26.47,-44.34 7.28,-12.71 14.72,-25.33 22.1,-37.98 2.49,-4.17 4.37,-8.91 8.28,-12.02 4.4,-1.13 8.67,-2.72 12.9901,-4.1 5.39,2.15 10.28,5.62 16,6.87 8.61,1.32 17.27,2.66 26.0099,2.21 6.69,0.31 13.4,-0.04 19.81,-2.14 10.11,-1.39 17.82,-8.61 26.82,-12.72 5.69,-2.39 11.93,-1.97 17.94,-2.38 3.72,-2.81 6.6,-6.57 10.06,-9.69 -0.36,-6.52 1.7,-13.36 -0.97,-19.59 -2.91,-7.34 -4.69,-15.16 -8.83,-21.96 -3.79,-7.33 -8.73,-13.95 -13.07,-20.94 -2.48,-4.15 -6.73,-6.64 -10.4,-9.59 -9.98,-8.68 -23.3,-11.52 -35.61,-15.32 7.04,-12.98 14.18,-25.9 21.45,-38.75 1.11,-0.42 2.23,-0.84 3.37,-1.2 9.85,0.35 19.52,3.11 29.28,4.5 31.58,11.53 63.65,21.65 95.39,32.74 78.0499,26.63 155.48,56.93 226.1799,99.86 35.23,21.49 68.8501,45.82 99.05,73.99 5.3099,5.38 11.14,10.2 16.4,15.63 10.45,11.22 21.33,22.07 30.87,34.09 13.13,15.8 25.6899,32.21 36.0499,49.99 11.7101,20.32 20.8301,42 29.0601,63.92 7.4399,18.96 12.88,38.73 16.03,58.85 3.39,19.44 3.2899,39.27 2.4299,58.91 -2.13,24.43 -7.86,48.59 -17.49,71.17 -14.34,33.9 -37.0499,63.84 -63.9299,88.7899 -6.55,5.8201 -13.28,11.41 -19.8,17.25 -2.15,1.8501 -4.1901,3.88 -6.73,5.1901 -6.17,3.41 -11.5701,8.04 -17.5701,11.74 -32.4399,21.47 -68.4099,37.34 -105.6799,48.3199 -38.77,11.4801 -78.89,17.9 -119.15,21.15 -47.63,3.67 -95.64,4 -143.16,-1.35 -64.52,-7.05 -128.04,-23.23 -188.1,-47.84 -18.97,-8.04 -37.36,-17.35 -56.08,-25.9401 -6.1,-3.25 -12.97,-5.1599 -18.33,-9.65 -4.35,-2.72 -9.12,-4.74 -13.32,-7.7 -16.08,-10.52 -29.23,-24.85 -40.69,-40.13 3.1,-10.3199 8.35,-19.9299 15.05,-28.34 2.69,-3.5 6,-6.49 8.41,-10.2001 12.73,-11.5699 27.6299,-21.8199 44.8,-25.3099 3.82,-0.46 5.36,-4.41 7.13,-7.28 7.77,-14.34 3.0099,-31.91 10.85,-46.25 -49.97,-13.26 -101.68,-17.34 -152.66,-24.95 -32.67,-4.85 -65.3,-11.05 -96.59,-21.82 -29.94,-10.28 -58.61,-24.88 -83.36,-44.73 -14.49,-12.16 -27.24,-26.37 -38.06,-41.87 -8.58,-12.01 -14.13,-25.79 -19.4,-39.47 -13.85,-36.59 -19.73,-76.81 -12.75,-115.55 6.47,-37.2 24.64,-71.69 49.2,-100.11 9.31,-10.62 19.15,-20.82 29.7,-30.22 27.03,-23.58 57.5,-43.15 90.12,-58.05 38.56,-17.81 79.53,-30.17 121.24,-38.03 C 605.03,434.5 632.53,432.25 659.99,431.11 m -171.77,79.22 c -4.3,2.01 -8.41,4.79 -11.08,8.79 -5.58,7.85 -11.51,15.55 -15.71,24.27 -4.97,9 -11.34,17.2 -18.68,24.38 -1.37,1.13 -2.69,3.52 -4.79,2.53 -12.08,-3.27 -23.82,-8.07 -34.36,-14.86 -4.15,-3.13 -9.41,-0.6 -14.1,-0.85 -3.55,3.7 -7.48,7.06 -10.77,10.99 -2.55,4.87 -4.74,10.01 -5.85,15.43 -1.21,5.61 -3.3,11.19 -2.6,17.03 0.67,6.09 1,12.37 3.52,18.06 2.28,5.03 2.86,11.05 6.89,15.13 7.12,7.54 14.31,15.04 21.83,22.19 4.93,3.8 10.16,7.21 15.23,10.83 6.44,3.17 13.37,5.26 20.04,7.9 3.9,1.72 8.15,0.5699 12.22,0.45 4.33,-0.33 8.91,0.35 12.97,-1.5699 5.11,-2.25 10.25,-4.4301 15.4,-6.59 6.03,-2.54 11.09,-7.24 17.64,-8.56 3.26,-0.68 6.63,-2.09 9.95,-0.84 2.36,0.78 5.38,0.84 6.85,3.14 5.59,7.72 11.17,15.45 16.7,23.23 2.87,4.2 6.63,7.73 10.58,10.92 5.29,0.15 10.01,-3.61 13.42,-7.35 3.69,-12.71 5.69,-25.85 7.87,-38.89 1.03,-7.66 4.52,-14.65 6.67,-22 1.7,-6.57 8.02,-10.39 10.61,-16.4901 3.23,-7.83 7.16,-15.41 9.17,-23.69 2.56,-6.02 1.18,-12.6299 0.03,-18.81 -0.98,-3.02 -1.17,-7.05 -4.6,-8.36 -3.73,-1.87 -7.03,-4.63 -11,-5.95 -9.72,-1.35 -19.56,-1.38 -29.33,-2.17 -5.22,-0.37 -10.54,0 -15.67,-1.14 -3.28,-2.59 -5.57,-6.25 -8.34,-9.35 -5.86,-6.6 -10.07,-14.46 -15.92,-21.07 -1.96,-2.03 -3.42,-4.99 -6.37,-5.69 -2.74,-0.67 -5.59,-1.4 -8.42,-1.04 m 551.4601,118.38 c -10.9901,7.8 -21.8901,15.9 -31.2101,25.68 -3.42,3.55 -7.33,6.75 -10.1,10.85 -1.89,1.29 -3.27,3.12 -4.68,4.88 -3.68,0.96 -6.94,3.15 -10.68,3.84 -6.54,0.44 -12.63,-2.45 -18.93,-3.68 -4.66,-1.1 -9.53,-0.5601 -14.16,-1.76 -4.85,-1.4 -9.93,-0.83 -14.87,-1.44 -2.65,-0.32 -5.39,-0.56 -7.86,0.61 -2.03,2.84 -6.44,4.23 -6.4,8.23 -0.46,6.69 -1.13,13.37 -2.28,19.99 -0.38,3.1201 -1.5,6.52 0.08,9.51 2.96,6.55 5.2599,13.48 9.5,19.37 2.45,4.14 6.33,7.05 9.65,10.43 2.89,2.75 3.74,6.9 6.51,9.75 0.6,2.6 2.82,4.35 4.57,6.22 2.39,2.2 4.53,4.72 7.2,6.6 6.85,1.67 13.91,2.17 20.97,1.96 0.38,0.34 1.15,1.02 1.53,1.36 2.46,4.19 5.88,7.72 8.4,11.89 3.04,3.95 4.72,8.68 7.22,12.94 1.99,2.6 4.5,4.83 7.18,6.72 2.85,1.11 5.96,1.31 8.94,1.98 3.21,0.58 6.56,2.11 9.79,0.74 6.46,-2.26 13.2401,-3.31 20.02,-4.05 5.67,-0.41 11.3,0.74 16.9601,1.11 4.86,2.8 9.63,6.09 15.26,7.16 4.26,0.81 8.36,2.4301 12.71,2.83 4.3101,-0.06 8.5699,-1.03 12.91,-1.09 4.5699,-5.03 8.97,-10.26 13.0499,-15.69 7.67,-9.21 12.14,-20.48 16.14,-31.64 1.0801,-6.28 1.02,-12.69 1.79,-19 0.33,-2.98 0.85,-5.97 0.5699,-8.96 -1.8199,-12.1 -3.7,-24.19 -6.37,-36.13 -0.48,-2.22 -1.8099,-4.1 -3.2799,-5.75 -1.1101,-2.82 -2.8701,-5.32 -4.1901,-8.03 -2.71,-5.85 -7.63,-10.19 -11.52,-15.22 -3.28,-4.35 -7.78,-7.49 -11.72,-11.17 -3.75,-2.91 -6.87,-6.63 -11.01,-9.01 -6.42,-3 -13.0699,-5.48 -19.4,-8.66 -4.1699,-1.85 -8.1599,-4.83 -12.95,-4.45 -3.0999,0.2 -6.6099,-0.75 -9.3398,1.08 M 1216.04,742.22 c -3.4701,2.1201 -7.7101,4.1201 -8.67,8.5 -2.13,-1.06 -3.61,2.76 -1.96,4.05 -2.91,3.91 -3.91,8.64 -5.8201,13.06 -1.5399,4.88 -0.87,10.1 -1.63,15.11 -0.2999,4.82 -1.9099,9.4 -3.12,14.03 -0.58,2.67 -1.2999,5.3101 -1.9399,7.98 -0.49,1.41 -0.9501,2.88 -1.92,4.07 -3.3099,3.96 -6.66,7.9 -10.23,11.63 -0.02,0.03 -0.07,0.08 -0.1,0.11 -5.0801,4.53 -9.1901,10.58 -15.85,12.92 -4.55,1.76 -7.9,5.39 -11.67,8.32 -3.0699,2.22 -4.63,5.76 -6.64,8.86 -0.04,1.38 -0.05,2.76 0.02,4.16 l -0.85,0.81 c 3.1599,1.37 6.23,-0.24 9.3199,-0.95 1.97,0.29 3.89,1.45 5.9401,0.76 5.6799,2.68 11.46,5.21 17.5299,6.87 3.3101,0.9 6.3501,2.51 9.3301,4.19 1.37,2.42 3.95,3.97 4.98,6.63 1.21,2.77 2.3099,5.64 2.74,8.66 0.4,1.47 -0.03,3.77 2.0601,4.15 0.03,0.32 0.11,0.97 0.1499,1.29 -1.0699,4.47 -0.3099,9.08 -0.5299,13.62 -0.1801,3.73 0.7699,7.37 1.9099,10.89 0.54,1.14 0.4701,3.12 2.27,3.11 0.08,0.34 0.25,1.01 0.34,1.34 2.99,2.98 5.9501,6.01 9.0801,8.87 1.0699,1.15 2.6899,1.08 4.15,1.2 10.72,0.7 21.34,2.47 32.0099,3.68 7.0701,-0.29 14.1801,-1.13 21.28,-0.53 6.49,2.24 13.3,3.35 19.9,5.22 4.75,1.57 9.26,3.76 13.95,5.5 2.02,2.48 5.64,3.94 8.8201,3.53 4.3199,1.74 8.61,3.64 13.0599,5.06 1.7201,0.67 3.4401,1.42 5.29,1.81 l 0.16,0.91 1.01,0.42 0.7799,-0.52 c 3.01,1.52 6.3101,3.98 9.8401,2.69 3.4299,-1.28 6.58,-3.47 8.78,-6.42 2.8799,-3.83 6.6299,-7.24 7.9299,-12.01 1.1,-4.07 3.15,-7.83 4.04,-11.96 l 0.27,1.1 c 0.8999,-5.6 0.84,-11.31 1.1899,-16.95 0.45,-7.06 -0.9399,-14.03 -0.99,-21.06 -0.15,-4.19 -0.27,-8.61 -2.49,-12.29 -0.72,-3.89 -1.88,-7.69 -2.83,-11.51 -3.4501,-11.52 -0.7001,-24.14 -5.7001,-35.26 -1.79,-4.5 -3.01,-9.23 -5.08,-13.61 1.71,-1.44 -0.28,-5.01 -2.3301,-3.86 1.4,-1.17 -0.33,-3.9901 -1.96,-2.98 -2.5,-3.71 -4.3099,-8.04 -7.88,-10.89 -4.5599,-5.25 -9.46,-10.3 -14.53,-15.07 -8.84,-6.64 -16.9299,-14.4901 -27.08,-19.14 1.11,-1.83 -2.24,-3.63 -3.41,-2.01 -3.1499,-2.06 -6.5,-3.78 -9.72,-5.71 l -0.5,-0.03 c -6.6799,-3.54 -13.75,-6.35 -20.74,-9.18 -2.87,-2.73 -7.08,-1.33 -10.49,-2.58 -4.37,-1.67 -9.17,-0.99 -13.58,-2.42 -3.4901,-1.04 -7.16,-1.09 -10.7301,-0.69 -2.7495,-0.81 -5.4395,0.31 -7.1595,2.52 m -328.38,108.8 c -2.74,2.95 -3.84,7.17 -5.2,10.91 -0.09,6.34 0.33,12.69 -0.1,19.04 -0.73,6.17 4.8,10.34 6.86,15.67 1.69,8.02 1.3101,16.27 1.19,24.41 -0.58,4.03 -3.21,7.47 -5.8199,10.47 -4.6201,-0.25 -9.15,1.39 -13.7401,0.77 -8.61,-3.72 -16.79,-8.37 -24.9,-13.07 -4.85,-3.06 -10.47,-4.37 -15.73,-6.48 -4.5,-1.26 -9.99,-0.12 -13.1,3.5 -1.25,3.35 -2.01,6.9 -3.84,10.04 -1.8101,3.09 -2.57,7.04 -0.84,10.35 4.02,10.09 7.47,20.41 11.6,30.46 5.17,7.95 10.75,15.69 17.08,22.8 7.04,7.73 12.92,16.4 19.55,24.47 5.11,7.46 11.31,14.0701 17.02,21.0601 4.28,6.22 10.14,11.08 15.3,16.5299 2.38,2.8501 5.9,4.14 9.01,5.9801 6.1,4.0099 12.66,7.24 18.78,11.23 5.28,1.34 10.84,0.97 16.16,2.1899 5.98,0.6901 12.02,0.04 18.04,0.26 5.01,0.37 9.31,-2.66 14.05,-3.74 3.7599,-1.34 8.11,-1.8199 11.02,-4.83 3.49,-3.37 7.77,-5.67 11.91,-8.11 4.41,-5.6901 7.8,-12.1001 11.86,-18.04 1.49,-2.4401 3.53,-4.84 3.55,-7.85 0.34,-5.6801 1.83,-11.3201 1.02,-17.02 -0.67,-4.7 -0.56,-9.67 -2.89,-13.94 -3.71,-7.4 -7.17,-14.94 -9.91,-22.74 -0.77,-5.77 0.6299,-11.5 0.91,-17.25 0.14,-2.7 1.48,-5.35 0.71,-8.04 -0.93,-3.93 -0.98,-7.97 -1.5,-11.94 -0.8,-5.5 1.29,-10.8 2.6,-16.04 0.44,-1.99 1.84,-4.03 0.84,-6.06 -1.15,-3.19 -2.71,-6.21 -4.15,-9.27 -4.64,-9.31 -8.69,-18.97 -14.13,-27.86 -6.37,-6.71 -14.1,-11.93 -22.08,-16.54 -3.56,-2.84 -8.07,-3.66 -12.13,-5.45 -4.5,-2.58 -9.78,-2.97 -14.6,-4.68 -5.77,-2.2 -12.02,-2.16 -18.08,-2.67 -8.79,0.05 -17.7,-0.53 -26.32,1.48 m 313.85,109.84 c -4.8101,1.85 -9.8101,3.52 -13.98,6.64 -5.7001,4.09 -11.1801,8.53 -17.48,11.71 -5.3601,3.81 -11.87,5.15 -18.1001,6.84 -3.3199,0.93 -6.74,0.12 -10.0399,-0.35 -12.2001,-1.24 -22.9601,-7.8 -34.8401,-10.33 -7.8899,-1.96 -15.96,-3.21 -23.6899,-5.77 -3.36,-1.0099 -6.8,-2.3 -10.36,-1.73 -3.74,0.61 -7.91,-0.33 -11.23,1.85 -3.02,1.54 -5.62,3.76 -7.76,6.3701 -2.42,2.98 -6.65,3.59 -8.91,6.77 6.91,7.75 15.29,14.01 22.39,21.59 7.24,6.77 12.87,15.23 21.03,21.0099 5.23,4.12 10.8999,7.92 14.13,13.9601 4.13,4.23 2.46,10.34 2.6,15.62 -0.04,13.3099 -0.67,26.7799 2.02,39.8999 2.0299,2.77 5.2899,4.4301 7.8199,6.77 2.53,2.5701 6.38,2.14 9.6801,2.55 10.76,0.25 21.52,3.03 32.2799,1.29 14.88,-2.0801 29.89,-2.78 44.9,-3.03 9.0601,-0.03 18.0601,-1.1901 27.0701,-2.03 8.2999,-0.6 16.6599,0.09 24.96,-0.47 6.83,-3.63 12.98,-8.5 19.54,-12.61 0.3199,-1.49 0.64,-2.9701 0.98,-4.4301 1.76,-6.4 -0.75,-12.9399 -2.49,-19.0699 -3.52,-5.6 -8.77,-9.9701 -12.28,-15.61 -5.37,-10.4 -6.8,-22.16 -9.79,-33.34 -1.6499,-5.9 -2.27,-12.17 -5.24,-17.62 -3.63,-7.14 -6.88,-14.45 -10.46,-21.61 -1.6,-3.43 -4.4301,-6 -6.72,-8.94 -2.6801,-3.87 -7.15,-6.04 -11.52,-7.31 -4.86,-0.14 -9.75,0.47 -14.51,1.38 z"
         inkscape:connector-curvature="0"
         style="fill:#fbcf78;stroke:#fbcf78;stroke-width:0.0938" />
      <path
         id="path4164"
         d="m 686.23,487.04 c 2.77,-0.91 5.75,-2.39 8.61,-0.93 4.7,1.82 9.97,2.71 13.9,6.09 3.6,2.97 7.18,5.97 10.79,8.93 -17.15,27.76 -34.33,55.51 -51.6201,83.2 -3.95,-4.5 -9.03,-8.23 -11.42,-13.9 -2.28,-5.09 -5.86,-9.75 -6.37,-15.46 -0.57,-5.6 -3.07,-11.35 -1.09,-16.92 1.43,-4.66 2.81,-9.34 4.12,-14.04 1.75,-6.5 5.83,-11.99 8.81,-17.94 1.93,-3.31 3.21,-7.4 6.77,-9.36 5.7601,-3.35 11.0801,-7.62 17.5001,-9.67 z"
         inkscape:connector-curvature="0"
         style="fill:#ea1d1a;stroke:#ea1d1a;stroke-width:0.0938" />
      <path
         id="path4166"
         d="m 776.16,547.04 c 11,-19.5 21.55,-39.25 32.63,-58.71 12.31,3.8 25.63,6.64 35.61,15.32 3.67,2.95 7.92,5.44 10.4,9.59 4.34,6.99 9.28,13.61 13.07,20.94 4.14,6.8 5.92,14.62 8.83,21.96 2.67,6.23 0.61,13.07 0.97,19.59 -3.46,3.12 -6.34,6.88 -10.06,9.69 -6.01,0.41 -12.25,-0.01 -17.94,2.38 -9,4.11 -16.71,11.33 -26.82,12.72 -6.41,2.1 -13.12,2.45 -19.81,2.14 -8.74,0.45 -17.4,-0.89 -26.0099,-2.21 -5.72,-1.25 -10.61,-4.72 -16,-6.87 -4.32,1.38 -8.59,2.97 -12.9901,4.1 -0.42,0.09 -1.27,0.27 -1.69,0.35 10.1,-16.9 19.83,-34.02 29.81,-50.99 z"
         inkscape:connector-curvature="0"
         style="fill:#ea1d1a;stroke:#ea1d1a;stroke-width:0.0938" />
      <path
         id="path4168"
         d="m 488.22,510.33 c 2.83,-0.36 5.68,0.37 8.42,1.04 2.95,0.7 4.41,3.66 6.37,5.69 5.85,6.61 10.06,14.47 15.92,21.07 2.77,3.1 5.06,6.76 8.34,9.35 5.13,1.14 10.45,0.77 15.67,1.14 9.77,0.79 19.61,0.82 29.33,2.17 3.97,1.32 7.27,4.08 11,5.95 3.43,1.31 3.62,5.34 4.6,8.36 1.15,6.1801 2.53,12.79 -0.03,18.81 -2.01,8.28 -5.94,15.86 -9.17,23.69 -2.59,6.1 -8.91,9.92 -10.61,16.4901 -2.15,7.35 -5.64,14.34 -6.67,22 -2.18,13.04 -4.18,26.18 -7.87,38.89 -3.41,3.74 -8.13,7.5 -13.42,7.35 -3.95,-3.19 -7.71,-6.72 -10.58,-10.92 -5.53,-7.78 -11.11,-15.5099 -16.7,-23.23 -1.47,-2.3 -4.49,-2.36 -6.85,-3.14 -3.32,-1.25 -6.69,0.16 -9.95,0.84 -6.55,1.32 -11.61,6.02 -17.64,8.56 -5.15,2.16 -10.29,4.34 -15.4,6.59 -4.06,1.92 -8.64,1.24 -12.97,1.5699 -4.07,0.12 -8.32,1.27 -12.22,-0.45 -6.67,-2.64 -13.6,-4.73 -20.04,-7.9 -5.07,-3.62 -10.3,-7.03 -15.23,-10.83 -7.52,-7.15 -14.71,-14.65 -21.83,-22.19 -4.03,-4.08 -4.61,-10.1 -6.89,-15.13 -2.52,-5.69 -2.85,-11.97 -3.52,-18.06 -0.7,-5.84 1.39,-11.42 2.6,-17.03 1.11,-5.42 3.3,-10.56 5.85,-15.43 3.29,-3.93 7.22,-7.29 10.77,-10.99 4.69,0.25 9.95,-2.28 14.1,0.85 10.54,6.79 22.28,11.59 34.36,14.86 2.1,0.99 3.42,-1.4 4.79,-2.53 7.34,-7.18 13.71,-15.38 18.68,-24.38 4.2,-8.72 10.13,-16.42 15.71,-24.27 2.67,-4 6.78,-6.78 11.08,-8.79 z"
         inkscape:connector-curvature="0"
         style="fill:#f8931f;stroke:#f8931f;stroke-width:0.0938" />
      <path
         id="path4170"
         d="m 289.84,640.76 c 14.63,-41.61 43.27,-76.96 76.8,-105 -10.55,9.4 -20.39,19.6 -29.7,30.22 -24.56,28.42 -42.73,62.91 -49.2,100.11 -6.98,38.74 -1.1,78.96 12.75,115.55 5.27,13.68 10.82,27.46 19.4,39.47 10.82,15.5 23.57,29.71 38.06,41.87 24.75,19.85 53.42,34.45 83.36,44.73 31.29,10.77 63.92,16.97 96.59,21.82 50.98,7.61 102.69,11.6899 152.66,24.95 -7.84,14.34 -3.08,31.91 -10.85,46.25 -1.77,2.87 -3.31,6.82 -7.13,7.28 9.4,-14.66 3.91,-33.48 12.12,-48.56 -47.34,-12.81 -96.41,-16.69 -144.73,-24.02 -19.5,-4.15 -39.09,-7.95 -58.62,-11.97 -4.72,-0.81 -9.4,-2.59 -14.25,-1.8 -9.59,-1.66 -18.89,-4.96 -28.19,-7.86 -30.8,-10.13 -60.26,-24.9 -85.77,-45.02 -14.84,-12.15 -27.71,-26.59 -38.77,-42.23 -9.46,-13.24 -15.45,-28.51 -21.09,-43.66 -8.45,-23.39 -13.64,-48.04 -14.31,-72.94 -0.59,-23.46 3.02,-47.05 10.87,-69.19 z"
         inkscape:connector-curvature="0"
         style="fill:#5f3713;stroke:#5f3713;stroke-width:0.0938" />
      <path
         id="path4172"
         d="m 598.5,1076.99 c 4.86,-17.17 16.04,-31.98 29.28,-43.67 -2.41,3.7101 -5.72,6.7001 -8.41,10.2001 -6.7,8.41 -11.95,18.02 -15.05,28.34 11.46,15.28 24.61,29.61 40.69,40.13 4.2,2.96 8.97,4.98 13.32,7.7 5.36,4.4901 12.23,6.4 18.33,9.65 18.72,8.5901 37.11,17.9 56.08,25.9401 60.06,24.61 123.58,40.7899 188.1,47.84 47.52,5.35 95.53,5.02 143.16,1.35 40.26,-3.25 80.38,-9.6699 119.15,-21.15 37.27,-10.98 73.24,-26.85 105.6799,-48.3199 6,-3.7 11.4,-8.33 17.5701,-11.74 -34.2001,26.71 -73.3301,46.77 -114.47,60.39 -42.01,13.99 -85.9,21.63 -129.9401,25.4299 -48.88,3.9401 -98.17,4.4601 -146.96,-1.0199 -67.61,-7.4301 -134.16,-24.75 -196.72,-51.4701 -21.29,-9.96 -42.53,-20.0399 -63.84,-29.9399 -0.27,-0.47 -0.81,-1.41 -1.0699,-1.88 C 630.86,1114.62 613.3,1096.34 598.5,1076.99 Z"
         inkscape:connector-curvature="0"
         style="fill:#5f3713;stroke:#5f3713;stroke-width:0.0938" />
      <path
         id="path4174"
         d="m 1039.6801,628.71 c 2.73,-1.83 6.24,-0.88 9.34,-1.08 4.79,-0.38 8.78,2.6 12.95,4.45 6.3301,3.18 12.98,5.66 19.4,8.66 4.14,2.38 7.26,6.1 11.01,9.01 3.9399,3.68 8.4399,6.82 11.72,11.17 3.89,5.03 8.8101,9.37 11.52,15.22 1.3199,2.71 3.08,5.21 4.1901,8.03 3.0599,10.02 4.97,20.32 6.5199,30.67 2.24,9.58 1.27,19.47 0.75,29.19 -0.48,8.6899 -3.62,16.8799 -7.33,24.65 -2.49,5.9 -7.01,10.75 -8.79,16.97 -4.08,5.43 -8.48,10.66 -13.0499,15.69 -4.3401,0.06 -8.6,1.03 -12.91,1.09 -4.35,-0.4 -8.45,-2.02 -12.71,-2.83 -5.63,-1.0699 -10.4,-4.36 -15.26,-7.16 -6.6801,-2.61 -14.3301,-3.72 -21.3201,-1.68 -4.87,0.83 -9.8099,1.38 -14.48,3.1 -4.02,1.6 -8.27,0.2 -12.3,-0.49 -3.37,-0.71 -7.03,-1.25 -9.65,-3.66 -4.85,-3.95 -6.58,-10.18 -9.97,-15.19 -3.22,-4.76 -6.04,-9.97 -10.79,-13.41 -0.38,-0.34 -1.15,-1.02 -1.53,-1.36 -7.06,0.21 -14.12,-0.29 -20.97,-1.96 -2.67,-1.88 -4.81,-4.4 -7.2,-6.6 -1.75,-1.87 -3.97,-3.62 -4.57,-6.22 -1.01,-9.5 -10.54,-13.75 -15.08,-21.21 -3.97,-5.74 -6.62,-12.24 -9.26,-18.66 -1.83,-3.63 0.23,-7.48 0.48,-11.2 0.42,-6.05 1.44,-12.03 2.28,-18.02 0.15,-3.51 3.51,-5.6 6.35,-6.95 4.69,-0.4 9.28,1.17 13.97,1.36 7.37,0.26 14.64,1.66 21.93,2.69 7.19,1.1 14.39,5.53 21.73,2.72 5.41,-1.26 10.0099,-5.11 11.72,-10.46 2.77,-4.1 6.68,-7.3 10.1,-10.85 9.3199,-9.78 20.2198,-17.88 31.21,-25.68 z"
         inkscape:connector-curvature="0"
         style="fill:#b53ae3;stroke:#b53ae3;stroke-width:0.0938" />
      <path
         id="path4176"
         d="m 993.69,670.12 c 1.41,-1.76 2.79,-3.59 4.68,-4.88 -1.71,5.35 -6.31,9.2 -11.72,10.46 -7.34,2.81 -14.54,-1.62 -21.73,-2.72 -7.29,-1.03 -14.56,-2.43 -21.93,-2.69 -4.69,-0.19 -9.28,-1.7599 -13.97,-1.36 -2.84,1.35 -6.2,3.44 -6.35,6.95 -0.84,5.99 -1.86,11.97 -2.28,18.02 -0.25,3.72 -2.31,7.5699 -0.48,11.2 2.64,6.42 5.29,12.92 9.26,18.66 4.54,7.46 14.07,11.71 15.08,21.21 -2.77,-2.85 -3.62,-7 -6.51,-9.75 -3.32,-3.3799 -7.2,-6.29 -9.65,-10.43 -4.2401,-5.89 -6.54,-12.82 -9.5,-19.37 -1.58,-2.99 -0.46,-6.39 -0.08,-9.51 1.15,-6.62 1.82,-13.3 2.28,-19.99 -0.04,-4 4.37,-5.39 6.4,-8.23 14.06,0.79 28.16,2.17 41.96,5.03 5.42,0.88 10.99,4.27 16.46,1.91 2.88,-1.08 6.2,-1.84 8.08,-4.51 z"
         inkscape:connector-curvature="0"
         style="fill:#b554b3;stroke:#b554b3;stroke-width:0.0938" />
      <path
         id="path4178"
         d="m 927.19,667.69 c 2.47,-1.17 5.21,-0.93 7.86,-0.61 4.94,0.61 10.02,0.04 14.87,1.44 4.63,1.2 9.5,0.66 14.16,1.76 6.3,1.23 12.39,4.12 18.93,3.68 3.74,-0.69 7,-2.88 10.68,-3.84 -1.88,2.67 -5.2,3.43 -8.08,4.51 -5.47,2.36 -11.04,-1.03 -16.46,-1.91 -13.8,-2.86 -27.9,-4.24 -41.96,-5.03 z"
         inkscape:connector-curvature="0"
         style="fill:#f2b0a9;stroke:#f2b0a9;stroke-width:0.0938" />
      <path
         id="path4180"
         d="m 1119.8101,684.17 c 1.47,1.65 2.7999,3.53 3.2799,5.75 2.67,11.94 4.55,24.03 6.37,36.13 0.28,2.99 -0.24,5.98 -0.5699,8.96 -0.77,6.31 -0.71,12.72 -1.79,19 -4,11.16 -8.47,22.43 -16.14,31.64 1.78,-6.22 6.3,-11.07 8.79,-16.97 3.71,-7.77 6.85,-15.96 7.33,-24.65 0.52,-9.72 1.49,-19.61 -0.75,-29.19 -1.5501,-10.35 -3.4601,-20.65 -6.52,-30.67 z"
         inkscape:connector-curvature="0"
         style="fill:#ba5bb1;stroke:#ba5bb1;stroke-width:0.0938" />
      <path
         id="path4182"
         d="m 553.6,706.52 c 12.83,-6.39 27.7401,-6.24 41.56,-3.89 -1.06,1.85 -1.99,3.76 -3.09,5.6 -15.97,-3.5 -33.78,-3.45 -48.15,5.27 2.37,-3.34 6.14,-5.15 9.68,-6.98 z"
         inkscape:connector-curvature="0"
         style="fill:#5e3711;stroke:#5e3711;stroke-width:0.0938" />
      <path
         id="path4184"
         d="m 657.88,744.57 c 1.35,-2.18 2.75,-4.33 4.15,-6.47 8.87,8.1801 17.31,17.12 23,27.85 3.99,7.58 6.33,16.42 4.55,24.96 -2.11,10.23 -8.77,19.19 -17.15,25.2401 4.89,-5.48 9.37,-11.67 11.01,-18.96 2.63,-10.18 -0.8,-20.8 -6.09,-29.52 C 672.14,758.98 665.16,751.54 657.88,744.57 Z"
         inkscape:connector-curvature="0"
         style="fill:#5f3813;stroke:#5f3813;stroke-width:0.0938" />
      <path
         id="path4186"
         d="m 1216.04,742.22 c 1.72,-2.21 4.4099,-3.33 7.1599,-2.52 11.63,1.72 23.24,3.5 34.8,5.69 6.99,2.83 14.0601,5.64 20.74,9.18 -4.23,0.07 -7.8199,-2.41 -11.58,-3.97 -13.42,-6.65 -28.7101,-6.84 -43.15,-9.62 -2.7299,-0.67 -5.4299,0.39 -7.9699,1.24 z"
         inkscape:connector-curvature="0"
         style="fill:#3c7b94;stroke:#3c7b94;stroke-width:0.0938" />
      <path
         id="path4188"
         d="m 1216.04,742.22 c 2.5399,-0.85 5.24,-1.91 7.97,-1.24 14.4399,2.78 29.73,2.97 43.15,9.62 3.76,1.56 7.35,4.04 11.58,3.97 l 0.5,0.03 c 3.22,1.9301 6.5701,3.65 9.72,5.71 1.04,0.78 2.17,1.49 3.41,2.01 10.15,4.65 18.24,12.5 27.08,19.14 5.0701,4.77 9.9701,9.82 14.53,15.07 2.9301,7.48 9.11,13.15 11.98,20.68 2.05,5.59 4.25,11.15 5.99,16.86 1.54,4.84 1.4501,9.97 1.53,15 0.08,5.82 1.47,11.52 3.09,17.09 0.09,-0.7599 0.27,-2.28 0.3601,-3.03 0.95,3.82 2.11,7.62 2.83,11.51 3.04,16.24 1.61,32.8 2.02,49.2 -0.89,4.1299 -2.9401,7.89 -4.04,11.96 -1.3,4.77 -5.05,8.18 -7.9299,12.01 -2.2001,2.95 -5.3501,5.14 -8.78,6.42 -3.53,1.29 -6.8301,-1.17 -9.8401,-2.69 -0.49,-0.2 -1.46,-0.61 -1.95,-0.81 -1.85,-0.39 -3.5699,-1.14 -5.29,-1.81 0.65,-0.04 1.9301,-0.12 2.5801,-0.15 -10.16,-4.36 -20.5701,-8.09 -30.7101,-12.49 -8.9299,-3.8701 -18.5699,-5.4901 -27.9299,-7.92 -4.3101,-1.1 -8.76,-0.57 -13.05,0.19 4.4501,0.26 9.02,-0.19 13.38,1.06 -7.1,-0.6 -14.21,0.24 -21.28,0.53 -10.6699,-1.21 -21.2899,-2.98 -32.0099,-3.68 -1.4601,-0.12 -3.0801,-0.05 -4.15,-1.2 -3.13,-2.86 -6.0901,-5.89 -9.0801,-8.87 -0.09,-0.33 -0.26,-1 -0.34,-1.34 -1.01,-4.67 -3.2,-9.15 -3.03,-14.01 0.1001,-4.55 0.17,-9.12 -0.62,-13.61 -0.04,-0.32 -0.12,-0.97 -0.1499,-1.29 -0.2301,-5.38 -2.4401,-10.36 -4.5601,-15.21 -0.74,-2.38 -3.3,-3.11 -5.22,-4.23 -2.98,-1.68 -6.02,-3.29 -9.3301,-4.19 -6.0699,-1.66 -11.85,-4.19 -17.5299,-6.87 -4.36,-3.16 -9.5901,-1.19 -14.41,-0.62 -0.07,-1.4 -0.06,-2.78 -0.02,-4.16 2.01,-3.1 3.5701,-6.64 6.64,-8.86 3.77,-2.93 7.12,-6.56 11.67,-8.32 6.6599,-2.34 10.7699,-8.39 15.85,-12.92 0.03,-0.03 0.08,-0.08 0.1,-0.11 3.5699,-3.73 6.92,-7.67 10.23,-11.63 0.97,-1.19 1.4301,-2.66 1.92,-4.07 0.64,-2.67 1.36,-5.31 1.9399,-7.98 1.2101,-4.6299 2.8201,-9.21 3.12,-14.03 0.76,-5.01 0.09,-10.23 1.63,-15.11 1.91,-4.42 2.91,-9.15 5.8201,-13.06 0.8199,-1.26 1.4,-2.66 1.96,-4.05 0.9598,-4.38 5.1997,-6.38 8.6698,-8.5 m -12.8501,17.11 -0.2799,0.64 c 0.25,0.21 0.75,0.6201 0.99,0.83 l 0.46,-0.9 -0.47,-0.87 -0.7001,0.3 z"
         inkscape:connector-curvature="0"
         style="fill:#0171bd;stroke:#0171bd;stroke-width:0.0938" />
      <path
         id="path4190"
         d="m 1205.41,754.77 c -1.65,-1.29 -0.17,-5.11 1.96,-4.05 -0.5599,1.39 -1.14,2.79 -1.96,4.05 z"
         inkscape:connector-curvature="0"
         style="fill:#c1cba0;stroke:#c1cba0;stroke-width:0.0938" />
      <path
         id="path4192"
         d="m 1203.1899,759.33 0.7001,-0.3 0.47,0.87 -0.46,0.9 c -0.24,-0.21 -0.74,-0.62 -0.99,-0.83 l 0.2799,-0.64 z"
         inkscape:connector-curvature="0"
         style="fill:#346f83;stroke:#346f83;stroke-width:0.0938" />
      <path
         id="path4194"
         d="m 1288.96,760.31 c 1.17,-1.62 4.52,0.18 3.41,2.01 -1.24,-0.52 -2.37,-1.23 -3.41,-2.01 z"
         inkscape:connector-curvature="0"
         style="fill:#bac2a7;stroke:#bac2a7;stroke-width:0.0938" />
      <path
         id="path4196"
         d="m 978.52,761.11 c 4.75,3.44 7.57,8.65 10.79,13.41 3.39,5.01 5.12,11.24 9.97,15.19 2.62,2.41 6.28,2.95 9.65,3.66 4.03,0.69 8.28,2.09 12.3,0.49 4.67,-1.72 9.61,-2.27 14.48,-3.1 6.99,-2.04 14.64,-0.93 21.3201,1.68 -5.66,-0.37 -11.29,-1.52 -16.9601,-1.11 -6.7799,0.74 -13.5599,1.79 -20.02,4.05 -3.23,1.37 -6.58,-0.16 -9.79,-0.74 -2.98,-0.67 -6.09,-0.87 -8.94,-1.98 -2.68,-1.89 -5.19,-4.12 -7.18,-6.72 -2.5,-4.26 -4.18,-8.99 -7.22,-12.94 -2.52,-4.17 -5.94,-7.7 -8.4,-11.89 z"
         inkscape:connector-curvature="0"
         style="fill:#c2659b;stroke:#c2659b;stroke-width:0.0938" />
      <path
         id="path4198"
         d="m 1345.96,817.21 c -2.87,-7.53 -9.0499,-13.2 -11.98,-20.68 3.5701,2.85 5.38,7.18 7.88,10.89 0.52,1.05 1.2001,2.04 1.96,2.98 0.7101,1.31 1.5,2.59 2.3301,3.86 2.0699,4.38 3.2899,9.11 5.08,13.61 5,11.12 2.25,23.74 5.7001,35.26 -0.09,0.75 -0.27,2.27 -0.3601,3.03 -1.62,-5.5699 -3.0099,-11.27 -3.09,-17.09 -0.08,-5.03 0.01,-10.16 -1.53,-15 -1.7401,-5.71 -3.9401,-11.27 -5.9901,-16.86 z"
         inkscape:connector-curvature="0"
         style="fill:#3f7a91;stroke:#3f7a91;stroke-width:0.0938" />
      <path
         id="path4200"
         d="m 1343.8199,810.4 c 2.05,-1.15 4.04,2.42 2.3301,3.86 -0.8301,-1.27 -1.62,-2.55 -2.3301,-3.86 z"
         inkscape:connector-curvature="0"
         style="fill:#d2d3a3;stroke:#d2d3a3;stroke-width:0.0938" />
      <path
         id="path4202"
         d="m 1180.65,820.76 c 0.03,-0.03 0.08,-0.08 0.1,-0.11 -0.02,0.03 -0.07,0.08 -0.1,0.11 z"
         inkscape:connector-curvature="0"
         style="fill:#b6cabe;stroke:#b6cabe;stroke-width:0.0938" />
      <path
         id="path4204"
         d="m 887.66,851.02 c 8.6201,-2.01 17.53,-1.43 26.32,-1.48 6.06,0.51 12.31,0.47 18.08,2.67 4.82,1.71 10.1,2.1 14.6,4.68 4.06,1.79 8.57,2.61 12.13,5.45 7.98,4.61 15.71,9.83 22.08,16.54 5.44,8.89 9.49,18.55 14.13,27.86 1.44,3.06 3,6.08 4.15,9.27 1,2.03 -0.4,4.07 -0.84,6.06 -1.31,5.24 -3.4,10.54 -2.6,16.04 0.52,3.97 0.57,8.01 1.5,11.94 0.77,2.69 -0.57,5.34 -0.71,8.04 -0.28,5.75 -1.68,11.48 -0.91,17.25 2.74,7.8 6.2,15.34 9.91,22.74 2.33,4.27 2.22,9.24 2.89,13.94 0.81,5.7 -0.68,11.34 -1.02,17.02 -0.02,3.01 -2.06,5.4099 -3.55,7.85 -4.06,5.9399 -7.45,12.35 -11.86,18.04 -4.14,2.4399 -8.42,4.74 -11.91,8.11 -2.91,3.01 -7.26,3.49 -11.02,4.83 -4.7401,1.08 -9.04,4.11 -14.05,3.74 -6.02,-0.22 -12.06,0.4301 -18.04,-0.26 -5.32,-1.22 -10.88,-0.85 -16.16,-2.1899 -6.1201,-3.99 -12.6801,-7.2201 -18.78,-11.23 -3.11,-1.8401 -6.63,-3.13 -9.01,-5.9801 -5.16,-5.45 -11.02,-10.3099 -15.3,-16.5299 -5.71,-6.99 -11.91,-13.6 -17.02,-21.0601 -6.63,-8.07 -12.51,-16.74 -19.55,-24.47 -6.33,-7.11 -11.91,-14.85 -17.08,-22.8 -4.13,-10.05 -7.58,-20.3701 -11.6,-30.46 -1.73,-3.31 -0.97,-7.26 0.84,-10.35 1.83,-3.14 2.59,-6.69 3.84,-10.04 3.11,-3.62 8.6,-4.76 13.1,-3.5 5.26,2.11 10.88,3.42 15.73,6.48 8.11,4.7 16.29,9.35 24.9,13.07 4.59,0.62 9.12,-1.02 13.7401,-0.77 2.61,-3 5.24,-6.44 5.8199,-10.47 0.1201,-8.14 0.5,-16.39 -1.19,-24.41 -2.06,-5.33 -7.59,-9.5 -6.86,-15.67 0.43,-6.35 0.01,-12.7 0.1,-19.04 1.36,-3.74 2.46,-7.96 5.2,-10.91 z"
         inkscape:connector-curvature="0"
         style="fill:#ffff01;stroke:#ffff01;stroke-width:0.0938" />
      <path
         id="path4206"
         d="m 1146.51,855.02 c 4.8199,-0.57 10.05,-2.54 14.41,0.62 -2.05,0.69 -3.9701,-0.47 -5.9401,-0.76 -3.09,0.71 -6.16,2.32 -9.3199,0.95 l 0.85,-0.81 z"
         inkscape:connector-curvature="0"
         style="fill:#d1cda3;stroke:#d1cda3;stroke-width:0.0938" />
      <path
         id="path4208"
         d="m 1187.78,866.7 c 1.9199,1.12 4.48,1.85 5.22,4.23 2.12,4.85 4.33,9.83 4.5601,15.21 -2.0901,-0.38 -1.66,-2.68 -2.0601,-4.15 -0.4301,-3.02 -1.53,-5.89 -2.74,-8.66 -1.03,-2.66 -3.61,-4.21 -4.98,-6.63 z"
         inkscape:connector-curvature="0"
         style="fill:#c1c9a6;stroke:#c1c9a6;stroke-width:0.0938" />
      <path
         id="path4210"
         d="m 1359.76,874.64 c 2.22,3.68 2.34,8.1 2.49,12.29 0.05,7.03 1.4399,14 0.99,21.06 -0.35,5.64 -0.29,11.35 -1.1899,16.95 l -0.27,-1.1 c -0.4101,-16.4 1.0199,-32.96 -2.0201,-49.2 z"
         inkscape:connector-curvature="0"
         style="fill:#658a84;stroke:#658a84;stroke-width:0.0938" />
      <path
         id="path4212"
         d="m 1197.71,887.43 c 0.79,4.49 0.7201,9.06 0.62,13.61 -0.1699,4.86 2.02,9.34 3.03,14.01 -1.7999,0.01 -1.73,-1.97 -2.27,-3.11 -1.14,-3.52 -2.09,-7.16 -1.9099,-10.89 0.2199,-4.54 -0.5401,-9.15 0.5299,-13.62 z"
         inkscape:connector-curvature="0"
         style="fill:#cfcea3;stroke:#cfcea3;stroke-width:0.0938" />
      <path
         id="path4214"
         d="m 1254.84,928.55 c 4.29,-0.76 8.74,-1.29 13.05,-0.19 9.36,2.43 19,4.05 27.9299,7.92 10.14,4.4 20.55,8.1299 30.7101,12.49 -0.65,0.03 -1.9301,0.11 -2.5801,0.15 -4.45,-1.42 -8.74,-3.32 -13.0599,-5.06 -2.88,-1.35 -5.83,-2.52 -8.8201,-3.53 -4.6899,-1.74 -9.2,-3.93 -13.95,-5.5 -6.6,-1.87 -13.41,-2.98 -19.9,-5.22 -4.3599,-1.25 -8.9299,-0.8 -13.3799,-1.06 z"
         inkscape:connector-curvature="0"
         style="fill:#357693;stroke:#357693;stroke-width:0.0938" />
      <path
         id="path4216"
         d="m 1302.0699,940.33 c 2.9901,1.01 5.9401,2.18 8.8201,3.53 -3.18,0.41 -6.8,-1.05 -8.8201,-3.53 z"
         inkscape:connector-curvature="0"
         style="fill:#c2c9a4;stroke:#c2c9a4;stroke-width:0.0938" />
      <path
         id="path4218"
         d="m 1329.24,950.73 c 0.49,0.2 1.46,0.61 1.95,0.81 l -0.7799,0.52 -1.01,-0.42 -0.1601,-0.91 z"
         inkscape:connector-curvature="0"
         style="fill:#abc0b2;stroke:#abc0b2;stroke-width:0.0938" />
      <path
         id="path4220"
         d="m 1201.51,960.86 c 4.76,-0.91 9.65,-1.52 14.51,-1.38 4.37,1.27 8.84,3.44 11.52,7.31 2.2899,2.94 5.12,5.51 6.72,8.94 3.58,7.16 6.83,14.47 10.46,21.61 2.97,5.45 3.5901,11.72 5.24,17.62 2.99,11.18 4.42,22.94 9.79,33.34 3.51,5.6399 8.76,10.01 12.28,15.61 1.74,6.13 4.25,12.6699 2.49,19.0699 -0.34,1.46 -0.66,2.9401 -0.98,4.4301 -6.5601,4.11 -12.7101,8.98 -19.54,12.61 -8.3,0.5599 -16.66,-0.13 -24.96,0.47 -9.01,0.84 -18.01,2 -27.0701,2.03 -15.01,0.25 -30.02,0.95 -44.9,3.03 -10.7599,1.74 -21.5199,-1.04 -32.2799,-1.29 -3.3,-0.41 -7.15,0.02 -9.6801,-2.55 -2.53,-2.34 -5.79,-4 -7.8199,-6.77 -2.6901,-13.12 -2.0601,-26.59 -2.02,-39.8999 -0.14,-5.28 1.53,-11.39 -2.6,-15.62 -3.2301,-6.04 -8.9,-9.8401 -14.13,-13.9601 -8.16,-5.78 -13.79,-14.24 -21.03,-21.0099 -7.1,-7.58 -15.48,-13.84 -22.39,-21.59 2.26,-3.18 6.49,-3.79 8.91,-6.77 2.14,-2.61 4.74,-4.83 7.76,-6.3701 3.3199,-2.18 7.49,-1.24 11.23,-1.85 3.5599,-0.57 7,0.72 10.36,1.73 7.73,2.56 15.8,3.81 23.6899,5.77 11.88,2.53 22.64,9.09 34.8401,10.33 3.2999,0.47 6.72,1.28 10.0399,0.35 6.2301,-1.69 12.74,-3.03 18.1001,-6.84 6.2999,-3.18 11.7799,-7.62 17.48,-11.71 4.17,-3.12 9.17,-4.79 13.98,-6.64 z"
         inkscape:connector-curvature="0"
         style="fill:#92c73b;stroke:#92c73b;stroke-width:0.0938" />
    </g>
  </g>
</svg>
